#!OML:ASF E:/inclinewalkrobotboard/Project1/Captureday1/Session1/subject1.ASF
:FULLY-SPECIFIED
:DEGREES
51
root 0 0 0 1.2581408228042665 -3.5917747200493526 1.8996064981342915
lowerback 12.042771764690066 0.8483036094027157 -0.10761010887500888
upperback -4.409497024878447 1.0653612562068762 -0.6024229215883151
thorax -11.572984690954318 0.48727083954467365 -0.8027489215292205
lowerneck -5.96181481121981 1.7283631220476166 4.700003623462494
upperneck 18.393820939383573 3.2872246003436585 -8.468801772995626
head 6.731559157543545 1.2127842545925853 -3.25295576845782
rclavicle -3.7798260801857813E-16 -2.1127001199950607E-15
rhumerus 20.788848312632176 14.832078024853542 -47.29376466951806
rradius 72.87453508829387
rwrist 27.419196457791212
rhand -34.558163024688454 -57.65226503652781
rfingers 7.12502000000002
rthumb -7.751673934988524 -87.6085118412659
lclavicle -2.2031938445247826E-15 4.1895397281350497E-16
lhumerus 21.889980930118114 -13.05764959940767 44.45065040872509
lradius 70.73843744525259
lwrist -22.503113107178436
lhand -45.095909195805135 -70.84281461427254
lfingers 7.125020000000016
lthumb -17.857518717634065 -41.899785181644475
rfemur -25.61323796549317 -2.371410021432756 16.876629461841638
rtibia 54.52222737486138
rfoot -31.336433087800966 -17.851157071986815
rtoes -19.036412750859466
lfemur -27.986789635727344 2.832129827603505 -18.342567537054677
ltibia 54.78646762231922
lfoot -33.21585777156071 -3.535175609015762
ltoes -20.659138957396838
52
root 0 0 0 1.2576404482168293 -3.5911636345488054 1.8995606065139246
lowerback 12.042965193580093 0.8481584614905877 -0.10758087803091876
upperback -4.40941710561074 1.06521614978679 -0.6023739363948327
thorax -11.573015557175466 0.4871846970511295 -0.8027385267900309
lowerneck -5.962162116427206 1.7281764638490487 4.699931514945703
upperneck 18.393739548475185 3.2869434654454803 -8.46862495136608
head 6.73160667037031 1.2126605615848454 -3.25293295076976
rclavicle -3.868105759270709E-16 -2.0996123859333007E-15
rhumerus 20.787302390782628 14.829609793184519 -47.29453201318713
rradius 72.87550535076286
rwrist 27.418619037141298
rhand -34.55932981592964 -57.651843375212984
rfingers 7.12502000000002
rthumb -7.752682115606778 -87.6070225682181
lclavicle -2.2364024129494272E-15 4.30092980874531E-16
lhumerus 21.89071996168112 -13.061114573105622 44.45243593415536
lradius 70.74022547429824
lwrist -22.50052347961261
lhand -45.09545966576396 -70.83709689582417
lfingers 7.125020000000016
lthumb -17.856930405550237 -41.89386123831464
rfemur -25.614686964560427 -2.375818275024854 16.878709259067136
rtibia 54.52908688014272
rfoot -31.331721581387043 -17.850022922651565
rtoes -19.015584217562424
lfemur -27.994584408062728 2.836659150123139 -18.347814354907612
ltibia 54.79782326206031
lfoot -33.210286789300184 -3.536480070109123
ltoes -20.638858586243998
53
root 0 0 0 1.258188238913191 -3.591660869161317 1.8997736413333937
lowerback 12.042909323615845 0.8482618366558816 -0.10767289147039172
upperback -4.409474048119921 1.065300800914867 -0.6024619835850186
thorax -11.57303831882868 0.48724132314385704 -0.8027442037921619
lowerneck -5.961950796960019 1.7282865979876012 4.699910914029866
upperneck 18.393727324823406 3.287112505196048 -8.468641335181584
head 6.73155638383523 1.212743773857584 -3.2529041370064347
rclavicle -3.765903066393998E-16 -2.1118609372456987E-15
rhumerus 20.789801775193425 14.833560993485564 -47.29486916668229
rradius 72.87515493514562
rwrist 27.41804188273794
rhand -34.55805560101054 -57.65181136239446
rfingers 7.12502000000002
rthumb -7.751579341381847 -87.6080855638097
lclavicle -2.2009535460526557E-15 4.1760494142712917E-16
lhumerus 21.889838657964724 -13.057949007458477 44.451076730701274
lradius 70.73837590309932
lwrist -22.502732946581773
lhand -45.09577920774382 -70.8417501943618
lfingers 7.125020000000016
lthumb -17.85740541155292 -41.89857087209165
rfemur -25.61666405156877 -2.3710536360931 16.876533394070755
rtibia 54.521486635722724
rfoot -31.336933247239433 -17.853757664530903
rtoes -19.029685049579285
lfemur -27.991143531169634 2.83370695307601 -18.34416713528815
ltibia 54.78993674081327
lfoot -33.21757441928057 -3.5333176511324376
ltoes -20.650738453747643
54
root 0 0 0 1.2582385805009872 -3.591842110429097 1.8996549069246034
lowerback 12.042869554963355 0.848287500060706 -0.10761971453766717
upperback -4.40949975328097 1.065341462755123 -0.6024390833836705
thorax -11.573040700809617 0.4872610108640423 -0.8027596590273622
lowerneck -5.961895070518042 1.7283160318991821 4.69991131378231
upperneck 18.39373923548762 3.2871545182273048 -8.468674009795526
head 6.731548539927841 1.2127583126869652 -3.2529096699533264
rclavicle -3.7662348992138257E-16 -2.1120909665246033E-15
rhumerus 20.789738310054155 14.833351059249287 -47.29465502166839
rradius 72.87520894929966
rwrist 27.418230043389066
rhand -34.55811573349274 -57.651941591116724
rfingers 7.12502000000002
rthumb -7.751616040250109 -87.60827233948586
lclavicle -2.2025572635209187E-15 4.193142619757288E-16
lhumerus 21.890134389801105 -13.058184255801532 44.450903023956435
lradius 70.73869143556006
lwrist -22.502770311406856
lhand -45.095904071721804 -70.8422291169523
lfingers 7.125020000000016
lthumb -17.85750967460163 -41.89915778900232
rfemur -25.61540728961842 -2.3710510707158656 16.876874532566525
rtibia 54.52062875537443
rfoot -31.338442138214475 -17.85297017456884
rtoes -19.03386834891342
lfemur -27.9892611619619 2.832126449987728 -18.342063941326913
ltibia 54.78516096869538
lfoot -33.21836564525876 -3.532415831666546
ltoes -20.6572538099592
